<svg width="29" height="29" viewBox="0 0 29 29" fill="none" xmlns="http://www.w3.org/2000/svg">
<path d="M7.48464 24.7576C7.13917 24.7569 6.79982 24.6664 6.49996 24.4948C5.82475 24.1122 5.405 23.3695 5.405 22.5632V6.24561C5.405 5.43705 5.82475 4.69657 6.49996 4.31395C6.80696 4.13752 7.15571 4.04679 7.50977 4.05124C7.86383 4.0557 8.21019 4.15517 8.51265 4.33928L22.4585 12.6871C22.7492 12.8694 22.9888 13.1224 23.1548 13.4226C23.3209 13.7228 23.4081 14.0602 23.4081 14.4033C23.4081 14.7463 23.3209 15.0838 23.1548 15.3839C22.9888 15.6841 22.7492 15.9372 22.4585 16.1194L8.5104 24.4695C8.20087 24.6566 7.84634 24.7562 7.48464 24.7576Z" fill="#E1E1E6"/>
</svg>
