<svg width="29" height="29" viewBox="0 0 29 29" fill="none" xmlns="http://www.w3.org/2000/svg">
<path d="M1.7269 12.9113L12.3541 6.55312C12.617 6.39315 12.9181 6.30672 13.2258 6.30286C13.5335 6.299 13.8366 6.37785 14.1035 6.53118C14.393 6.69978 14.6328 6.94199 14.7984 7.23323C14.964 7.52447 15.0496 7.85435 15.0465 8.18938V12.6373L25.2152 6.55143C25.4781 6.39147 25.7791 6.30504 26.0868 6.30118C26.3946 6.29732 26.6977 6.37617 26.9645 6.52949C27.254 6.69809 27.4938 6.94031 27.6594 7.23154C27.8251 7.52278 27.9107 7.85266 27.9075 8.18769V20.6228C27.9108 20.9579 27.8253 21.2879 27.6596 21.5793C27.494 21.8706 27.2542 22.1129 26.9645 22.2815C26.6977 22.4349 26.3946 22.5137 26.0868 22.5099C25.7791 22.506 25.4781 22.4196 25.2152 22.2596L15.0465 16.1709V20.6205C15.0502 20.956 14.9648 21.2865 14.7992 21.5783C14.6335 21.8701 14.3935 22.1128 14.1035 22.2815C13.8366 22.4349 13.5335 22.5137 13.2258 22.5099C12.9181 22.506 12.617 22.4196 12.3541 22.2596L1.7269 15.9014C1.47426 15.7431 1.26597 15.5233 1.12159 15.2625C0.977205 15.0016 0.901459 14.7084 0.901459 14.4103C0.901459 14.1122 0.977205 13.819 1.12159 13.5581C1.26597 13.2973 1.47426 13.0775 1.7269 12.9192V12.9113Z" fill="#E1E1E6"/>
</svg>
