<svg width="29" height="29" viewBox="0 0 29 29" fill="none" xmlns="http://www.w3.org/2000/svg">
<g clip-path="url(#clip0_1_139)">
<path d="M27.0814 12.9113L16.4542 6.55311C16.1913 6.39314 15.8902 6.30671 15.5825 6.30285C15.2748 6.29899 14.9717 6.37784 14.7048 6.53116C14.4153 6.69976 14.1755 6.94198 14.0099 7.23322C13.8443 7.52445 13.7587 7.85434 13.7618 8.18936V12.6373L3.59313 6.55142C3.33022 6.39145 3.02918 6.30502 2.72146 6.30116C2.41373 6.2973 2.11062 6.37615 1.84378 6.52947C1.55425 6.69807 1.3145 6.94029 1.14886 7.23153C0.983234 7.52276 0.897627 7.85265 0.900737 8.18767V20.6228C0.897527 20.9579 0.983087 21.2879 1.14872 21.5792C1.31436 21.8706 1.55417 22.1129 1.84378 22.2815C2.11062 22.4349 2.41373 22.5137 2.72146 22.5098C3.02918 22.506 3.33022 22.4196 3.59313 22.2596L13.7618 16.1709V20.6205C13.7582 20.956 13.8435 21.2865 14.0092 21.5783C14.1748 21.87 14.4149 22.1127 14.7048 22.2815C14.9717 22.4349 15.2748 22.5137 15.5825 22.5098C15.8902 22.506 16.1913 22.4196 16.4542 22.2596L27.0814 15.9014C27.334 15.7431 27.5423 15.5233 27.6867 15.2624C27.8311 15.0016 27.9068 14.7084 27.9068 14.4103C27.9068 14.1122 27.8311 13.8189 27.6867 13.5581C27.5423 13.2973 27.334 13.0775 27.0814 12.9192V12.9113Z" fill="#E1E1E6"/>
</g>
<defs>
<clipPath id="clip0_1_139">
<rect width="28.8089" height="28.8089" fill="white"/>
</clipPath>
</defs>
</svg>
